# xmcd
#
# Track frame offsets: 
#        183
#        12435
#        27100
#        39073
#        48685
#        60523
#        72558
#        85918
#        99870
#        112500
#        124540
#        136440
#        154355
#        165158
#        175798
#        184160
#
# Disc length: 2609 seconds
#
# Revision: 2
# Processed by: cddbd v1.5.2PL0 Copyright (c) Steve Scherf et al.
# Submitted via: ExactAudioCopy v0.99pb4
#
DISCID=c00a2f10
DTITLE=Johnny Guitar Watson - The Gangster Is Back
DYEAR=1976
DGENRE=Blues
TTITLE0=Too Tired
TTITLE1=Don't Touch Me
TTITLE2=Hot Little Mama
TTITLE3=Blues Slide
TTITLE4=I Love To Love You
TTITLE5=Oh Baby
TTITLE6=Someone Cares For Me
TTITLE7=She Moves Me
TTITLE8=Love Me Baby
TTITLE9=Gangster Of Love
TTITLE10=One Room Country Shack
TTITLE11=Acoustic Instrumental
TTITLE12=One More Kiss
TTITLE13=Johnny Guitar
TTITLE14=Looking Back
TTITLE15=The Eagle Is Back
EXTD=
EXTT0=
EXTT1=
EXTT2=
EXTT3=
EXTT4=
EXTT5=
EXTT6=
EXTT7=
EXTT8=
EXTT9=
EXTT10=
EXTT11=
EXTT12=
EXTT13=
EXTT14=
EXTT15=
PLAYORDER=
